<?xml version="1.0"?>
<svg xmlns:rdf="http://www.w3.org/1999/02/22-rdf-syntax-ns#" xmlns="http://www.w3.org/2000/svg" xmlns:cc="http://creativecommons.org/ns#" xmlns:dc="http://purl.org/dc/elements/1.1/" xmlns:svg="http://www.w3.org/2000/svg" id="svg3976" viewBox="0 0 321.68 437.59" version="1.1">
  <g id="layer1" transform="translate(-188.88 -315.78)">
    <g id="g2815">
      <path id="path3850-9" d="m510.33 316.03s-59.533 19.591-141.51 29.765c-125.32 15.554-174.36 82.633-179.94 144.02 1.5502 21.785 8.0739 76.754 59.328 89.06 7.7728-5.0085 16.072-8.8475 24.673-11.053 39.32-10.081 73.835 1.0687 109.68 53.481 3.9724-45.968 14.283-162 14.283-162s2.7534-23.846 7.7849-34.465c19.458-59.805 80.743-54.565 105.7-108.81z" fill="#d40000"/>
      <path id="path3848-3" transform="translate(188.88 315.78)" fill="#500" d="m321.69 0c-36.526 36.295-98.244 67.233-126.72 108.47 0 0 1.7884 142-1.9375 188.69-14.147-28.021-41.489-48.224-73.875-52.438-0.0103-0.001-0.0209 0.001-0.0312 0-0.0829-0.0114-0.16707-0.0202-0.25-0.0312-1.0634-0.13517-2.1449-0.24335-3.2188-0.34375-3.0054-0.28099-6.0462-0.4375-9.125-0.4375-52.654 0-95.487 42.009-96.812 94.344-0.004 0.0824 0.003 0.16764 0 0.25-0.007 0.31166 0.004 0.62512 0 0.9375-0.01 0.34606-0.02675 0.68578-0.03125 1.0312-0.00027 0.0939 0 0.18724 0 0.28125-0.008 0.83695 0.00905 1.6671 0.03125 2.5 0.0209 0.78082 0.04595 1.5671 0.09375 2.3438 0.004 0.0832-0.004 0.16689 0 0.25 0.0177 0.27079 0.0415 0.54228 0.0625 0.8125 3.051 50.741 45.149 90.938 96.656 90.938 60.733-6.6401 84.595-35.646 97.375-83.344 19.576-73.062 3.0882-152.26 20.188-237 11.459-23.275 39.102-41.582 65.383-53.756l4.9604 127.03c-3.796-0.98079-16.286-0.93374-20.401-0.93374-25.405 0-46 19.923-46 44.5s20.962 48.031 46 44.5c52.355-7.383 43.653-47.873 38.495-83.566l-1.61-131.12 10.77-63.9z"/>
    </g>
  </g>
  <metadata>
    <rdf:RDF>
      <cc:Work>
        <dc:format>image/svg+xml</dc:format>
        <dc:type rdf:resource="http://purl.org/dc/dcmitype/StillImage"/>
        <cc:license rdf:resource="http://creativecommons.org/licenses/publicdomain/"/>
        <dc:publisher>
          <cc:Agent rdf:about="http://openclipart.org/">
            <dc:title>Openclipart</dc:title>
          </cc:Agent>
        </dc:publisher>
        <dc:title>Love Music</dc:title>
        <dc:date>2010-03-06T22:47:55</dc:date>
        <dc:description>A simple musical note plus a heart</dc:description>
        <dc:source>http://openclipart.org/detail/30025/love-music-by-nefigcas</dc:source>
        <dc:creator>
          <cc:Agent>
            <dc:title>nefigcas</dc:title>
          </cc:Agent>
        </dc:creator>
        <dc:subject>
          <rdf:Bag>
            <rdf:li>clip art</rdf:li>
            <rdf:li>clipart</rdf:li>
            <rdf:li>heart</rdf:li>
            <rdf:li>love</rdf:li>
            <rdf:li>music</rdf:li>
            <rdf:li>note</rdf:li>
            <rdf:li>symbol</rdf:li>
          </rdf:Bag>
        </dc:subject>
      </cc:Work>
      <cc:License rdf:about="http://creativecommons.org/licenses/publicdomain/">
        <cc:permits rdf:resource="http://creativecommons.org/ns#Reproduction"/>
        <cc:permits rdf:resource="http://creativecommons.org/ns#Distribution"/>
        <cc:permits rdf:resource="http://creativecommons.org/ns#DerivativeWorks"/>
      </cc:License>
    </rdf:RDF>
  </metadata>
</svg>
